# xmcd CD database file
#
# Track frame offsets:
#	150
#	23786
#	33103
#	51589
#	65948
#	92290
#	105964
#	114293
#	128398
#	150398
#	167118
#	181142
#	190681
#	203324
#	224102
#	241778
#	253865
#	280591
#	302936
#
# Disc length: 4277 seconds
#
# Revision: 0
# Processed by: cddbd v1.5.1PL0 Copyright (c) Steve Scherf et al.
# Submitted via: CDex 1.50beta9
#
DISCID=f410b313
DTITLE=Christy Moore - Belfast Brigade 
DYEAR=1900
DGENRE=Country
TTITLE0=Before The Deluge
TTITLE1=Belfast Brigade
TTITLE2=Deportee
TTITLE3=Easter Snow
TTITLE4=Fairytale Of New York
TTITLE5=Folk Tale
TTITLE6=Grannies Dustbin Lid
TTITLE7=Jesus Christ and Jesse James
TTITLE8=Kellswater
TTITLE9=Pretty Boy floyd
TTITLE10=Sacco and Vanzetti
TTITLE11=Streets Of London
TTITLE12=The Dying Soldier
TTITLE13=Reel in the Flickering Light
TTITLE14=Lakes Of Pontchartrain
TTITLE15=Tippin' It Up To Nancy
TTITLE16=Wicca
TTITLE17=Christy Moore and Enya - Quiet Desperation
TTITLE18=All for the Roses
EXTD=
EXTT0=
EXTT1=
EXTT2=
EXTT3=
EXTT4=
EXTT5=
EXTT6=
EXTT7=
EXTT8=
EXTT9=
EXTT10=
EXTT11=
EXTT12=
EXTT13=
EXTT14=
EXTT15=
EXTT16=
EXTT17=
EXTT18=
PLAYORDER=
